<?xml version="1.0"?>
<svg xmlns="http://www.w3.org/2000/svg" id="Capa_1" enable-background="new 0 0 512 512" height="512px" viewBox="0 0 512 512" width="512px"><g><g><path d="m324.527 124.79v37.473h99.484l-18.737-37.473z" data-original="#000000" class="active-path" data-old_color="#000000" fill="#AE1F3B"/><path d="m0 57.317h294.527v37.473h-294.527z" data-original="#000000" class="active-path" data-old_color="#000000" fill="#AE1F3B"/><path d="m294.527 327.21h-294.527v93.736h30c0-35.144 28.592-63.736 63.737-63.736 35.144 0 63.736 28.592 63.737 63.736h137.054v-93.736z" data-original="#000000" class="active-path" data-old_color="#000000" fill="#AE1F3B"/><path d="m0 259.737h294.527v37.473h-294.527z" data-original="#000000" class="active-path" data-old_color="#000000" fill="#AE1F3B"/><path d="m0 192.263h294.527v37.473h-294.527z" data-original="#000000" class="active-path" data-old_color="#000000" fill="#AE1F3B"/><path d="m0 124.79h294.527v37.473h-294.527z" data-original="#000000" class="active-path" data-old_color="#000000" fill="#AE1F3B"/><path d="m377.054 293.473v-101.21h-52.527v228.683h30c0-35.144 28.592-63.736 63.737-63.736 35.144 0 63.736 28.592 63.737 63.736h30v-127.473z" data-original="#000000" class="active-path" data-old_color="#000000" fill="#AE1F3B"/><path d="m407.054 192.263v71.21h96.865l-31.649-71.21z" data-original="#000000" class="active-path" data-old_color="#000000" fill="#AE1F3B"/><ellipse cx="93.737" cy="420.946" rx="33.737" ry="33.737" transform="matrix(.987 -.16 .16 .987 -66.218 20.45)" data-original="#000000" class="active-path" data-old_color="#000000" fill="#AE1F3B"/><ellipse cx="418.263" cy="420.946" rx="33.737" ry="33.737" transform="matrix(.987 -.16 .16 .987 -62.027 72.434)" data-original="#000000" class="active-path" data-old_color="#000000" fill="#AE1F3B"/></g></g> </svg>
